<svg width="32" height="31" viewBox="0 0 32 31" fill="none" xmlns="http://www.w3.org/2000/svg">
<path d="M16.0385 18.1765C16.0073 18.1948 15.9686 18.1948 15.9374 18.1765L0.769404 9.29069C0.703456 9.25205 0.70347 9.15672 0.769428 9.1181L15.9375 0.237954C15.9687 0.219685 16.0073 0.219684 16.0385 0.237953L31.2064 9.1181C31.2724 9.15672 31.2724 9.25205 31.2064 9.29069L16.0385 18.1765ZM16.0384 24.1777C16.0072 24.196 15.9686 24.196 15.9375 24.1777L1.5835 15.7856C1.51518 15.7457 1.51813 15.646 1.58869 15.6101L5.37527 13.6871C5.40558 13.6717 5.44164 13.6728 5.471 13.6899L15.9385 19.8061C15.9691 19.824 16.0069 19.8244 16.0378 19.807L26.9541 13.6901C26.9848 13.6729 27.0222 13.6731 27.0527 13.6906L30.4006 15.6072C30.4673 15.6454 30.4677 15.7415 30.4013 15.7803L16.0384 24.1777ZM16.0384 30.1789C16.0072 30.1971 15.9686 30.1971 15.9375 30.1789L1.59024 21.7907C1.52057 21.75 1.52537 21.6477 1.59855 21.6137L5.37833 19.8562C5.407 19.8429 5.44029 19.8439 5.4681 19.8589L15.9423 25.5285C15.9709 25.544 16.0052 25.5446 16.0344 25.5302L27.4628 19.8596C27.4936 19.8443 27.5301 19.8459 27.5595 19.8639L30.408 21.607C30.4725 21.6465 30.4715 21.7405 30.4063 21.7786L16.0384 30.1789Z" fill="white"/>
</svg>
