<svg width="35" height="35" viewBox="0 0 35 35" fill="none" xmlns="http://www.w3.org/2000/svg">
<path d="M34.6593 14.0726H33.2497V14H17.4998V21H27.3899C25.947 25.0749 22.0699 28 17.4998 28C11.7013 28 6.99993 23.2986 6.99993 17.5C6.99993 11.7014 11.7013 7 17.4998 7C20.1764 7 22.6115 8.00975 24.4656 9.65912L29.4155 4.70925C26.29 1.79638 22.1093 0 17.4998 0C7.83555 0 0 7.83562 0 17.5C0 27.1644 7.83555 35 17.4998 35C27.1641 35 34.9997 27.1644 34.9997 17.5C34.9997 16.3266 34.8789 15.1813 34.6593 14.0726Z" fill="#FFC107"/>
<path d="M2.01782 9.35463L7.7674 13.5713C9.32313 9.7195 13.0909 7 17.4999 7C20.1765 7 22.6116 8.00975 24.4658 9.65913L29.4156 4.70925C26.2901 1.79638 22.1094 0 17.4999 0C10.7782 0 4.94905 3.79488 2.01782 9.35463Z" fill="#FF3D00"/>
<path d="M17.4984 34.9996C22.0186 34.9996 26.1259 33.2697 29.2312 30.4566L23.815 25.8734C22.058 27.2042 19.874 27.9996 17.4984 27.9996C12.9467 27.9996 9.08188 25.0973 7.62589 21.0469L1.91919 25.4437C4.81541 31.1111 10.6971 34.9996 17.4984 34.9996Z" fill="#4CAF50"/>
<path d="M34.6597 14.0726H33.2501V14H17.5002V21H27.3903C26.6973 22.9574 25.4382 24.6453 23.8142 25.8746L23.8168 25.8729L29.233 30.4561C28.8498 30.8044 35.0001 26.25 35.0001 17.5C35.0001 16.3266 34.8793 15.1813 34.6597 14.0726Z" fill="#1976D2"/>
</svg>
