<svg width="31" height="31" viewBox="0 0 31 31" fill="none" xmlns="http://www.w3.org/2000/svg">
<path d="M15.4768 0.50051C15.3456 0.505235 15.2192 0.552961 15.1155 0.636924L0.740829 12.352C0.610037 12.4585 0.525113 12.6149 0.504739 12.7868C0.484365 12.9587 0.53021 13.132 0.632189 13.2686C0.734168 13.4052 0.883927 13.4939 1.04852 13.5152C1.21311 13.5365 1.37906 13.4886 1.50985 13.3821L2.37531 12.6771V29.8385C2.37533 30.0116 2.44118 30.1776 2.55838 30.3001C2.67559 30.4225 2.83454 30.4912 3.00029 30.4913H11.6451C11.7126 30.5029 11.7815 30.5029 11.849 30.4913H19.1449C19.2124 30.5029 19.2813 30.5029 19.3488 30.4913H27.9997C28.1654 30.4912 28.3244 30.4225 28.4416 30.3001C28.5588 30.1776 28.6246 30.0116 28.6247 29.8385V12.6771L29.4901 13.3821C29.5549 13.4348 29.629 13.4738 29.7081 13.4966C29.7873 13.5194 29.87 13.5258 29.9515 13.5152C30.033 13.5047 30.1117 13.4775 30.1831 13.4352C30.2546 13.3929 30.3173 13.3363 30.3678 13.2687C30.4183 13.201 30.4556 13.1237 30.4774 13.041C30.4993 12.9583 30.5054 12.8719 30.4953 12.7868C30.4852 12.7017 30.4591 12.6195 30.4186 12.5449C30.3781 12.4703 30.3239 12.4047 30.2591 12.352L25.4997 8.47373V3.72856H21.7498V5.41652L15.8845 0.636924C15.7682 0.542746 15.6238 0.494439 15.4768 0.50051ZM15.5 1.98067L27.3747 11.6584V29.1858H19.8749V16.7835H11.1251V29.1858H3.62528V11.6584L15.5 1.98067ZM22.9998 5.03405H24.2498V7.45509L22.9998 6.43517V5.03405Z" fill="white"/>
</svg>
