<svg width="31" height="31" viewBox="0 0 31 31" fill="none" xmlns="http://www.w3.org/2000/svg">
<path d="M28.1667 30.5L17.6667 20C16.8333 20.6667 15.875 21.1944 14.7917 21.5833C13.7083 21.9722 12.5556 22.1667 11.3333 22.1667C8.30556 22.1667 5.74306 21.1181 3.64583 19.0208C1.54861 16.9236 0.5 14.3611 0.5 11.3333C0.5 8.30556 1.54861 5.74306 3.64583 3.64583C5.74306 1.54861 8.30556 0.5 11.3333 0.5C14.3611 0.5 16.9236 1.54861 19.0208 3.64583C21.1181 5.74306 22.1667 8.30556 22.1667 11.3333C22.1667 12.5556 21.9722 13.7083 21.5833 14.7917C21.1944 15.875 20.6667 16.8333 20 17.6667L30.5 28.1667L28.1667 30.5ZM11.3333 18.8333C13.4167 18.8333 15.1875 18.1042 16.6458 16.6458C18.1042 15.1875 18.8333 13.4167 18.8333 11.3333C18.8333 9.25 18.1042 7.47917 16.6458 6.02083C15.1875 4.5625 13.4167 3.83333 11.3333 3.83333C9.25 3.83333 7.47917 4.5625 6.02083 6.02083C4.5625 7.47917 3.83333 9.25 3.83333 11.3333C3.83333 13.4167 4.5625 15.1875 6.02083 16.6458C7.47917 18.1042 9.25 18.8333 11.3333 18.8333Z" fill="white"/>
</svg>
