<svg width="22" height="22" viewBox="0 0 22 22" fill="none" xmlns="http://www.w3.org/2000/svg">
<g clip-path="url(#clip0_5833_2809)">
<path d="M1.22196 6.68823H13.5361V4.24426H1.22196C0.547121 4.24426 0 4.79138 0 5.46622C0 6.14107 0.547121 6.68823 1.22196 6.68823Z" fill="#FF6666"/>
<path d="M1.22196 11.5923H13.5361V9.14832H1.22196C0.547121 9.14832 0 9.69544 0 10.3703C0 11.0452 0.547121 11.5923 1.22196 11.5923Z" fill="#FF6666"/>
<path d="M1.22196 14.0521V14.0522C0.547121 14.0522 0 14.5992 0 15.2741C0 15.949 0.547121 16.4961 1.22196 16.4961H9.77689C9.68025 16.1985 9.62923 15.8846 9.62923 15.5626C9.62923 15.0233 9.77063 14.5061 10.0347 14.0521H1.22196Z" fill="#FF6666"/>
<path d="M21.5475 14.4699C20.9441 13.8664 19.9656 13.8664 19.3621 14.4699L18.0933 15.7388V2.53077C18.0933 1.67729 17.4014 0.985474 16.5479 0.985474C15.6944 0.985474 15.0026 1.67734 15.0026 2.53077V15.7388L13.7338 14.4699C13.1303 13.8665 12.1518 13.8664 11.5483 14.4699C10.9448 15.0734 10.9448 16.0519 11.5483 16.6554L15.455 20.562C16.0573 21.1645 17.0369 21.1665 17.6409 20.562L21.5475 16.6554C22.151 16.0519 22.151 15.0734 21.5475 14.4699Z" fill="#FF6666"/>
</g>
<defs>
<clipPath id="clip0_5833_2809">
<rect width="22" height="22" fill="white"/>
</clipPath>
</defs>
</svg>
